<svg width="535" height="382" viewBox="0 0 535 382" fill="none" xmlns="http://www.w3.org/2000/svg">
<g clip-path="url(#clip0)">
<path d="M449.994 316.064C456.221 312.483 461.435 307.527 465.188 301.621C468.941 295.715 471.122 289.036 471.542 282.157C471.961 275.279 470.608 268.407 467.598 262.132C464.588 255.857 460.012 250.367 454.262 246.133C459.809 238.723 466.015 231.774 472.814 225.363C476.061 222.297 479.356 219.405 482.702 216.637C484.033 217.698 485.335 218.8 486.61 219.942L497.692 213.54C499.04 212.761 500.537 212.241 502.098 212.009C503.658 211.777 505.252 211.838 506.788 212.188C508.324 212.538 509.772 213.171 511.049 214.05C512.326 214.93 513.407 216.038 514.231 217.313L525.217 234.294C526.041 235.568 526.592 236.984 526.837 238.459C527.083 239.934 527.018 241.441 526.648 242.893C526.277 244.345 525.607 245.713 524.677 246.92C523.747 248.128 522.574 249.15 521.226 249.929L510.144 256.331C512.6 264.187 513.797 272.346 513.696 280.538L526.22 283.843C527.742 284.244 529.167 284.925 530.411 285.847C531.655 286.769 532.695 287.913 533.471 289.215C534.247 290.517 534.744 291.951 534.933 293.435C535.122 294.919 535 296.423 534.574 297.862L528.914 317.033C528.489 318.472 527.769 319.819 526.794 320.995C525.818 322.171 524.607 323.154 523.23 323.887C521.853 324.621 520.336 325.09 518.766 325.269C517.197 325.448 515.605 325.333 514.083 324.93L501.57 321.631C498.216 327.009 494.221 332.008 489.664 336.527L496.437 347.003C498.095 349.578 498.605 352.669 497.854 355.599C497.102 358.529 495.151 361.056 492.43 362.627L474.465 373.012C473.117 373.791 471.619 374.311 470.059 374.543C468.498 374.775 466.904 374.714 465.368 374.363C463.832 374.012 462.384 373.379 461.107 372.5C459.83 371.62 458.749 370.512 457.926 369.237L451.153 358.764C444.736 360.55 438.121 361.628 431.441 361.975C427.645 349.063 425.978 335.675 426.498 322.282C434.787 322.303 442.921 320.151 449.994 316.064Z" fill="#489AFF"/>
<path d="M418.596 79.88H31.3401C20.8314 79.88 12.3125 87.9328 12.3125 97.8664V347.554C12.3125 357.487 20.8314 365.54 31.3401 365.54H418.596C429.105 365.54 437.624 357.487 437.624 347.554V97.8664C437.624 87.9328 429.105 79.88 418.596 79.88Z" fill="#E3EAFF"/>
<path d="M416.945 83.6393H32.988C24.659 83.6393 17.907 90.0218 17.907 97.895V347.528C17.907 355.401 24.659 361.783 32.988 361.783H416.945C425.274 361.783 432.026 355.401 432.026 347.528V97.895C432.026 90.0218 425.274 83.6393 416.945 83.6393Z" fill="#6DB8FF"/>
<path d="M404.828 96.7293H45.1054C39.9739 96.7293 35.814 100.662 35.814 105.512V328.459C35.814 333.309 39.9739 337.241 45.1054 337.241H404.828C409.959 337.241 414.119 333.309 414.119 328.459V105.512C414.119 100.662 409.959 96.7293 404.828 96.7293Z" fill="#2F6DFF"/>
<path d="M1.98296 350.729C0.698926 352.915 0.0170291 355.371 0 357.871C0 361.869 1.68033 365.704 4.67131 368.531C7.66229 371.359 11.7189 372.947 15.9488 372.947H433.985C436.079 372.947 438.153 372.558 440.089 371.8C442.024 371.043 443.783 369.932 445.264 368.532C446.745 367.132 447.92 365.47 448.722 363.641C449.524 361.812 449.936 359.851 449.936 357.871C449.918 355.37 449.235 352.914 447.95 350.729H1.98296Z" fill="#E3EAFF"/>
<path d="M1.98293 365.013C3.336 367.404 5.34886 369.405 7.8078 370.802C10.2667 372.198 13.0799 372.94 15.9487 372.947H433.985C436.853 372.94 439.667 372.198 442.125 370.802C444.584 369.405 446.597 367.404 447.95 365.013H1.98293Z" fill="#C8D6F2"/>
<path opacity="0.2" d="M418.596 79.88H134.792V259.166C134.791 260.109 134.987 261.042 135.369 261.913C135.75 262.784 136.31 263.576 137.015 264.243C137.72 264.909 138.558 265.438 139.479 265.799C140.401 266.159 141.388 266.345 142.386 266.344H437.632V97.8664C437.632 95.5038 437.139 93.1643 436.183 90.9815C435.226 88.7988 433.824 86.8156 432.056 85.1453C430.288 83.475 428.19 82.1503 425.88 81.2468C423.571 80.3434 421.096 79.8789 418.596 79.88Z" fill="#424261"/>
<path opacity="0.21" d="M469.867 59.0688H152.825C148.631 59.0688 145.231 62.2827 145.231 66.2473V251.089C145.231 255.054 148.631 258.268 152.825 258.268H469.867C474.061 258.268 477.461 255.054 477.461 251.089V66.2473C477.461 62.2827 474.061 59.0688 469.867 59.0688Z" fill="#E3EAFF"/>
<path d="M483.157 45.6101H166.115C161.921 45.6101 158.521 48.824 158.521 52.7886V237.63C158.521 241.595 161.921 244.809 166.115 244.809H483.157C487.352 244.809 490.752 241.595 490.752 237.63V52.7886C490.752 48.824 487.352 45.6101 483.157 45.6101Z" fill="#F9FBFC"/>
<path opacity="0.2" d="M97.1786 138.928H63.4793C60.8582 138.928 58.7334 140.937 58.7334 143.414V177.064C58.7334 179.541 60.8582 181.55 63.4793 181.55H97.1786C99.7997 181.55 101.925 179.541 101.925 177.064V143.414C101.925 140.937 99.7997 138.928 97.1786 138.928Z" fill="#424261"/>
<path d="M94.6876 200.84H60.9883C58.3672 200.84 56.2424 202.848 56.2424 205.326V238.975C56.2424 241.453 58.3672 243.461 60.9883 243.461H94.6876C97.3087 243.461 99.4335 241.453 99.4335 238.975V205.326C99.4335 202.848 97.3087 200.84 94.6876 200.84Z" fill="#6DB8FF"/>
<path d="M94.6876 261.409H60.9883C58.3672 261.409 56.2424 263.418 56.2424 265.895V299.545C56.2424 302.022 58.3672 304.031 60.9883 304.031H94.6876C97.3087 304.031 99.4335 302.022 99.4335 299.545V265.895C99.4335 263.418 97.3087 261.409 94.6876 261.409Z" fill="#6DB8FF"/>
<path d="M87.272 278.025C87.272 275.451 86.1904 272.982 84.2651 271.163C82.3398 269.343 79.7286 268.32 77.0058 268.32C74.283 268.32 71.6716 269.343 69.7463 271.163C67.821 272.982 66.7394 275.451 66.7394 278.025C66.7394 278.025 65.292 288.303 77.0058 296.476C88.7195 288.303 87.272 278.025 87.272 278.025Z" fill="#9570EE"/>
<path d="M77.6099 285.032C76.0924 285.149 74.5735 284.823 73.2583 284.098C71.9431 283.372 70.8951 282.283 70.2557 280.977C69.6163 279.671 69.4164 278.211 69.683 276.794C69.9496 275.377 70.6699 274.071 71.7465 273.053C72.8231 272.036 74.2042 271.355 75.7032 271.103C77.2022 270.851 78.747 271.04 80.1288 271.644C81.5106 272.248 82.6629 273.239 83.43 274.482C84.1972 275.726 84.5421 277.161 84.4184 278.596C84.2745 280.257 83.5111 281.817 82.2641 282.995C81.017 284.174 79.3676 284.896 77.6099 285.032Z" fill="#F9FBFC"/>
<path d="M91.0073 221.588C91.0078 224.244 90.1752 226.841 88.6147 229.049C87.0542 231.258 84.8359 232.979 82.2403 233.996C79.6448 235.012 76.7886 235.279 74.033 234.761C71.2773 234.243 68.746 232.964 66.7592 231.087C64.7723 229.209 63.4192 226.816 62.8709 224.212C62.3226 221.607 62.6037 218.907 63.6787 216.453C64.7538 213.999 66.5745 211.902 68.9105 210.427C71.2465 208.951 73.993 208.163 76.8025 208.163C80.5694 208.163 84.182 209.578 86.8458 212.095C89.5097 214.613 91.0066 218.028 91.0073 221.588Z" fill="#9570EE"/>
<path d="M88.258 221.588C88.2586 223.73 87.5872 225.824 86.3287 227.605C85.0703 229.386 83.2814 230.775 81.1882 231.595C79.0951 232.415 76.7916 232.63 74.5693 232.212C72.347 231.794 70.3055 230.763 68.7031 229.249C67.1008 227.735 66.0095 225.805 65.5672 223.705C65.125 221.604 65.3517 219.427 66.2187 217.448C67.0856 215.469 68.5539 213.777 70.4379 212.587C72.3218 211.397 74.5367 210.762 76.8025 210.762C79.8402 210.762 82.7535 211.903 84.9018 213.933C87.05 215.963 88.2573 218.717 88.258 221.588Z" fill="#F9FBFC"/>
<path d="M76.8025 210.762C79.2715 210.761 81.675 211.513 83.6548 212.908C85.6345 214.302 87.0844 216.264 87.7884 218.502C87.8167 218.592 87.8749 218.671 87.9545 218.728C88.0341 218.784 88.1309 218.815 88.2305 218.816C88.3013 218.816 88.3712 218.801 88.4346 218.771C88.498 218.741 88.5532 218.698 88.5959 218.644C88.6385 218.591 88.6674 218.529 88.6803 218.463C88.6931 218.397 88.6896 218.33 88.67 218.265C87.9189 215.842 86.3572 213.713 84.2189 212.199C82.0807 210.685 79.481 209.867 76.8094 209.867C74.1377 209.867 71.538 210.685 69.3997 212.199C67.2614 213.713 65.6998 215.842 64.9487 218.265C64.929 218.33 64.9256 218.397 64.9384 218.463C64.9513 218.529 64.9802 218.591 65.0228 218.644C65.0655 218.698 65.1207 218.741 65.1841 218.771C65.2475 218.801 65.3173 218.816 65.3881 218.816C65.4877 218.815 65.5845 218.784 65.6641 218.728C65.7437 218.671 65.802 218.592 65.8303 218.502C66.5333 216.266 67.981 214.306 69.958 212.911C71.935 211.517 74.3357 210.763 76.8025 210.762Z" fill="#BB87EE"/>
<path d="M89.5214 221.934C89.1913 221.934 88.8723 222.046 88.6226 222.25C88.373 222.454 88.2094 222.736 88.1619 223.045C87.791 225.641 86.4366 228.022 84.35 229.746C82.2634 231.47 79.5861 232.42 76.8148 232.42C74.0435 232.42 71.3662 231.47 69.2796 229.746C67.193 228.022 65.8386 225.641 65.4677 223.045C65.4202 222.736 65.2567 222.454 65.007 222.25C64.7574 222.046 64.4383 221.934 64.1083 221.934C63.9124 221.932 63.7185 221.97 63.5395 222.046C63.3605 222.121 63.2006 222.231 63.0705 222.37C62.9405 222.508 62.8433 222.671 62.7854 222.848C62.7275 223.025 62.7103 223.212 62.735 223.395C63.1949 226.615 64.8745 229.567 67.4621 231.705C70.0498 233.843 73.3699 235.022 76.8066 235.022C80.2433 235.022 83.5634 233.843 86.1511 231.705C88.7387 229.567 90.4183 226.615 90.8782 223.395C90.9029 223.212 90.8857 223.025 90.8278 222.848C90.7699 222.671 90.6727 222.508 90.5427 222.37C90.4126 222.231 90.2527 222.121 90.0737 222.046C89.8947 221.97 89.7008 221.932 89.5049 221.934H89.5214Z" fill="#7F57EE"/>
<path d="M88.258 221.588C88.2586 223.73 87.5872 225.824 86.3287 227.605C85.0703 229.386 83.2814 230.775 81.1882 231.595C79.0951 232.415 76.7916 232.63 74.5693 232.212C72.347 231.794 70.3055 230.763 68.7031 229.249C67.1008 227.735 66.0095 225.805 65.5672 223.705C65.125 221.604 65.3517 219.427 66.2187 217.448C67.0856 215.469 68.5539 213.777 70.4379 212.587C72.3218 211.397 74.5367 210.762 76.8025 210.762C79.8402 210.762 82.7535 211.903 84.9018 213.933C87.05 215.963 88.2573 218.717 88.258 221.588Z" fill="#F9FBFC"/>
<path d="M87.9696 225.083C87.8747 225.083 87.7822 225.111 87.7045 225.162C87.6269 225.214 87.5679 225.287 87.5357 225.371C86.7202 227.44 85.2552 229.223 83.3371 230.483C81.4189 231.742 79.1393 232.417 76.8039 232.417C74.4685 232.417 72.1889 231.742 70.2708 230.483C68.3526 229.223 66.8875 227.44 66.072 225.371C66.0398 225.287 65.9809 225.214 65.9032 225.162C65.8256 225.111 65.733 225.083 65.6381 225.083C65.5641 225.083 65.4911 225.1 65.4254 225.132C65.3597 225.164 65.3032 225.211 65.2608 225.268C65.2185 225.326 65.1915 225.392 65.1821 225.461C65.1727 225.531 65.1812 225.601 65.2069 225.667C66.0879 227.903 67.671 229.83 69.7438 231.191C71.8166 232.552 74.2801 233.282 76.8039 233.282C79.3277 233.282 81.7911 232.552 83.8639 231.191C85.9367 229.83 87.5198 227.903 88.4009 225.667C88.4266 225.601 88.4351 225.531 88.4257 225.461C88.4163 225.392 88.3893 225.326 88.3469 225.268C88.3045 225.211 88.2481 225.164 88.1824 225.132C88.1167 225.1 88.0437 225.083 87.9696 225.083Z" fill="#9570EE"/>
<path d="M76.7723 222.528C76.6266 222.528 76.4869 222.474 76.3839 222.376C76.2808 222.279 76.223 222.147 76.223 222.009V214.387C76.223 214.249 76.2808 214.117 76.3839 214.019C76.4869 213.922 76.6266 213.867 76.7723 213.867C76.9179 213.867 77.0576 213.922 77.1607 214.019C77.2637 214.117 77.3216 214.249 77.3216 214.387V222.009C77.3216 222.147 77.2637 222.279 77.1607 222.376C77.0576 222.474 76.9179 222.528 76.7723 222.528Z" fill="#9570EE"/>
<path d="M76.3769 221.734C76.4234 221.682 76.4803 221.639 76.5444 221.607C76.6085 221.576 76.6785 221.557 76.7504 221.551C76.8224 221.545 76.8948 221.553 76.9636 221.573C77.0324 221.594 77.0962 221.627 77.1513 221.671L82.1252 225.646C82.1804 225.69 82.226 225.744 82.2592 225.805C82.2924 225.865 82.3126 225.931 82.3188 225.999C82.3249 226.067 82.3168 226.136 82.2949 226.201C82.273 226.266 82.2378 226.326 82.1912 226.378C82.1447 226.431 82.0877 226.474 82.0236 226.505C81.9595 226.536 81.8895 226.556 81.8175 226.561C81.7456 226.567 81.6732 226.559 81.6044 226.539C81.5356 226.518 81.4718 226.485 81.4166 226.441L76.4428 222.466C76.3875 222.422 76.342 222.368 76.3088 222.308C76.2756 222.247 76.2554 222.181 76.2492 222.113C76.2431 222.045 76.2513 221.976 76.2732 221.911C76.2951 221.846 76.3303 221.786 76.3769 221.734Z" fill="#9570EE"/>
<path d="M76.8959 211.497H76.4839V212.535H76.8959V211.497Z" fill="#CED6FF"/>
<path d="M76.8959 230.467H76.4839V231.506H76.8959V230.467Z" fill="#CED6FF"/>
<path d="M66.1049 221.308V221.698H67.2035V221.308H66.1049Z" fill="#CED6FF"/>
<path d="M86.1735 221.308V221.698H87.2721V221.308H86.1735Z" fill="#CED6FF"/>
<path d="M69.3518 214.291L69.0602 214.566L69.8371 215.3L70.1287 215.025L69.3518 214.291Z" fill="#CED6FF"/>
<path d="M83.5397 227.705L83.2484 227.98L84.0253 228.715L84.3166 228.439L83.5397 227.705Z" fill="#CED6FF"/>
<path d="M69.06 228.44L69.3513 228.715L70.1282 227.981L69.8369 227.705L69.06 228.44Z" fill="#CED6FF"/>
<path d="M83.2511 215.025L83.5423 215.3L84.319 214.566L84.0278 214.291L83.2511 215.025Z" fill="#CED6FF"/>
<path d="M94.6876 137.581H60.9884C58.3673 137.581 56.2424 139.589 56.2424 142.067V175.716C56.2424 178.194 58.3673 180.202 60.9884 180.202H94.6876C97.3087 180.202 99.4335 178.194 99.4335 175.716V142.067C99.4335 139.589 97.3087 137.581 94.6876 137.581Z" fill="#6DB8FF"/>
<path d="M54.1661 175.828L57.7364 173.473L59.3377 167.92L57.5579 167.582L56.4896 169.602L57.5579 160.012L55.7783 160.349L53.9985 169.602L51.8508 173.979L53.809 175.158" fill="#F7D3A9"/>
<path d="M75.2398 185.81L75.7149 181.773L80.9332 176.84L82.1197 178.398L80.2219 180.418L90.1888 178.175V180.195L80.9332 183.57L79.0354 186.711L75.2398 185.81Z" fill="#F7D3A9"/>
<path d="M10.2471 285.637L29.6592 375.406L44.3501 373.918L34.3804 370.447L38.0524 369.455L32.8066 285.637H10.2471Z" fill="#544DB8"/>
<path d="M41.2027 284.149C41.2027 284.149 65.8605 305.973 62.1885 332.257C57.9919 353.089 49.0713 361.023 49.0713 361.023L46.4485 360.527L50.5132 370.693L38.7034 358.793C38.7034 358.793 53.2597 339.822 44.2128 320.109C38.4733 308.129 28.2385 298.587 15.4874 293.327C15.4874 293.327 32.4085 278.819 33.5894 279.193C36.2241 280.708 38.7659 282.363 41.2027 284.149Z" fill="#544DB8"/>
<path d="M51.6942 172.422C51.6942 172.422 11.1644 218.93 6.44324 228.24C6.44324 228.24 4.47403 231.586 4.47403 241.26C4.47403 250.933 8.01697 286.639 8.01697 286.639L49.335 288.872C49.335 288.872 35.9542 245.351 35.5614 244.235C32.1951 239.932 27.532 236.69 22.1833 234.936L56.8109 175.791L51.6942 172.422Z" fill="#FF8B40"/>
<path d="M26.0311 230.434C26.0311 230.434 27.7532 235.263 28.7035 238.181C28.7035 238.181 20.269 238.012 17.3001 234.307L20.4475 227.178L26.0311 230.434Z" fill="#F7D3A9"/>
<path d="M32.4442 215.345C32.4442 215.345 34.938 229.076 32.4442 232.197C29.9504 235.317 21.3978 230.011 17.8329 225.018C14.268 220.026 13.5594 208.789 19.6154 207.855C22.3564 207.369 25.1903 207.868 27.5629 209.253C29.9355 210.638 31.6761 212.811 32.4442 215.345Z" fill="#F7D3A9"/>
<path d="M28.6101 240.764C28.6101 240.764 61.1037 221.44 63.7238 217.476C66.344 213.512 73.6825 184.034 73.6825 184.034L79.9719 185.522C79.9719 185.522 76.3026 218.468 75.2562 221.936C74.2098 225.405 42.2354 257.608 34.8995 257.608C27.5637 257.608 24.9408 248.69 28.6101 240.764Z" fill="#FF8B40"/>
<path d="M14.9491 208.467C16.3316 206.805 18.1666 205.531 20.2574 204.78C22.3482 204.03 24.6157 203.831 26.8166 204.207C34.4079 205.552 36.3085 203.981 36.3085 203.981C36.3085 203.981 34.6606 211.832 29.4258 213.629C24.191 215.425 22.7821 214.973 22.7821 214.973C24.2526 216.335 25.4608 217.929 26.3525 219.683C27.0638 221.703 23.9795 217.216 22.7821 218.787C21.5846 220.358 22.7821 223.72 25.155 223.497C27.528 223.273 26.1026 225.067 25.155 226.872C24.2075 228.676 22.7821 230.911 21.3567 230.247C17.4586 228.392 14.4792 225.173 13.0513 221.274C11.1535 215.646 10.6783 210.264 14.9491 208.467Z" fill="#544DB8"/>
<path d="M275.04 66.4706H182.49C180.524 66.4706 178.93 67.977 178.93 69.8352V221.926C178.93 223.784 180.524 225.291 182.49 225.291H275.04C277.006 225.291 278.6 223.784 278.6 221.926V69.8352C278.6 67.977 277.006 66.4706 275.04 66.4706Z" fill="#E3EAFF"/>
<path d="M257.716 79.2569H198.864C197.291 79.2569 196.016 80.4622 196.016 81.9491V90.0233C196.016 91.5102 197.291 92.7156 198.864 92.7156H257.716C259.289 92.7156 260.564 91.5102 260.564 90.0233V81.9491C260.564 80.4622 259.289 79.2569 257.716 79.2569Z" fill="#6DB8FF"/>
<path d="M217.612 167.528H204.794C203.347 167.527 201.96 166.983 200.937 166.016C199.914 165.049 199.339 163.737 199.339 162.369C199.339 161.002 199.914 159.69 200.937 158.723C201.96 157.756 203.347 157.213 204.794 157.213H217.612C218.328 157.213 219.038 157.346 219.7 157.605C220.362 157.864 220.963 158.243 221.47 158.722C221.977 159.201 222.379 159.77 222.653 160.395C222.928 161.021 223.069 161.692 223.069 162.369C223.069 163.047 222.928 163.717 222.653 164.343C222.379 164.969 221.977 165.538 221.47 166.017C220.964 166.496 220.362 166.876 219.7 167.135C219.038 167.394 218.328 167.528 217.612 167.528Z" fill="#6DB8FF"/>
<path d="M254.631 167.528H241.814C240.367 167.527 238.979 166.983 237.956 166.016C236.934 165.049 236.359 163.737 236.359 162.369C236.359 161.002 236.934 159.69 237.957 158.723C238.979 157.756 240.367 157.213 241.814 157.213H254.631C255.348 157.213 256.057 157.346 256.72 157.605C257.382 157.864 257.983 158.243 258.49 158.722C258.997 159.201 259.399 159.77 259.673 160.395C259.947 161.021 260.089 161.692 260.089 162.369C260.089 163.047 259.947 163.717 259.673 164.343C259.399 164.969 258.997 165.538 258.49 166.017C257.983 166.496 257.382 166.876 256.72 167.135C256.058 167.394 255.348 167.528 254.631 167.528Z" fill="#9570EE"/>
<path d="M263.884 106.177H194.591V116.497H263.884V106.177Z" fill="#F9FBFC"/>
<path d="M263.884 123.673H194.591V133.993H263.884V123.673Z" fill="#F9FBFC"/>
<path d="M249.41 140.499H209.542V142.853H249.41V140.499Z" fill="#CDD4FF"/>
<path d="M483.99 195.907H359.401C355.72 195.906 352.189 194.523 349.586 192.062C346.983 189.601 345.521 186.263 345.521 182.783C345.521 179.303 346.983 175.965 349.586 173.504C352.189 171.043 355.72 169.66 359.401 169.659H483.99C487.671 169.66 491.202 171.043 493.805 173.504C496.408 175.965 497.87 179.303 497.87 182.783C497.87 186.263 496.408 189.601 493.805 192.062C491.202 194.523 487.671 195.906 483.99 195.907Z" fill="#9570EE"/>
<path d="M376.133 84.6414H298.528C295.507 84.6414 292.61 83.5072 290.474 81.4881C288.337 79.4691 287.137 76.7306 287.136 73.8749C287.136 72.4607 287.431 71.0604 288.003 69.7538C288.576 68.4472 289.415 67.2601 290.473 66.2601C291.531 65.2601 292.786 64.4668 294.169 63.9256C295.551 63.3844 297.032 63.1059 298.528 63.1059H376.127C379.148 63.1066 382.045 64.2415 384.181 66.261C386.317 68.2805 387.517 71.0193 387.517 73.8749C387.517 76.7295 386.318 79.4672 384.183 81.4862C382.048 83.5051 379.153 84.64 376.133 84.6414Z" fill="#E3EAFF"/>
<path d="M317.042 73.8749C317.042 74.5425 316.833 75.195 316.441 75.75C316.048 76.3051 315.491 76.7376 314.838 76.9931C314.186 77.2485 313.468 77.3154 312.775 77.1852C312.083 77.0549 311.447 76.7335 310.947 76.2615C310.448 75.7895 310.108 75.1881 309.97 74.5334C309.832 73.8787 309.903 73.2001 310.173 72.5834C310.443 71.9667 310.901 71.4395 311.488 71.0687C312.075 70.6978 312.766 70.4999 313.472 70.4999C314.419 70.4999 315.327 70.8555 315.997 71.4884C316.666 72.1214 317.042 72.9798 317.042 73.8749Z" fill="#FFC240"/>
<path d="M341.486 73.8749C341.486 74.5425 341.276 75.195 340.884 75.75C340.492 76.3051 339.934 76.7376 339.282 76.9931C338.629 77.2485 337.912 77.3154 337.219 77.1852C336.526 77.0549 335.89 76.7335 335.391 76.2615C334.891 75.7895 334.551 75.1881 334.414 74.5334C334.276 73.8787 334.347 73.2001 334.617 72.5834C334.887 71.9667 335.345 71.4395 335.932 71.0687C336.519 70.6978 337.209 70.4999 337.915 70.4999C338.862 70.4999 339.771 70.8555 340.44 71.4884C341.11 72.1214 341.486 72.9798 341.486 73.8749Z" fill="#90C240"/>
<path d="M364.029 73.8749C364.029 74.5425 363.82 75.195 363.427 75.75C363.035 76.3051 362.477 76.7376 361.825 76.9931C361.173 77.2485 360.455 77.3154 359.762 77.1852C359.069 77.0549 358.433 76.7335 357.934 76.2615C357.435 75.7895 357.095 75.1881 356.957 74.5334C356.819 73.8787 356.89 73.2001 357.16 72.5834C357.43 71.9667 357.888 71.4395 358.475 71.0687C359.062 70.6978 359.752 70.4999 360.459 70.4999C361.406 70.4999 362.314 70.8555 362.983 71.4884C363.653 72.1214 364.029 72.9798 364.029 73.8749Z" fill="#EB4F24"/>
<path d="M77.3408 169.711C82.1295 169.711 86.0114 166.042 86.0114 161.515C86.0114 156.988 82.1295 153.319 77.3408 153.319C72.5522 153.319 68.6702 156.988 68.6702 161.515C68.6702 166.042 72.5522 169.711 77.3408 169.711Z" fill="white"/>
<path d="M86.33 151.616H84.803L82.6058 148.692C82.5199 148.579 82.4066 148.486 82.2753 148.422C82.1439 148.358 81.9983 148.324 81.8505 148.324H73.0892C72.9417 148.324 72.7965 148.357 72.6655 148.421C72.5346 148.486 72.4219 148.578 72.3367 148.692L70.1396 151.616H68.6098C67.4651 151.619 66.3683 152.05 65.5589 152.816C64.7495 153.581 64.2932 154.617 64.2896 155.699V167.582C64.2932 168.664 64.7495 169.701 65.5589 170.466C66.3683 171.231 67.4651 171.663 68.6098 171.666H86.3245C87.4692 171.663 88.566 171.231 89.3754 170.466C90.1848 169.701 90.6412 168.664 90.6448 167.582V155.699C90.6412 154.618 90.1855 153.582 89.3773 152.817C88.5691 152.052 87.4737 151.62 86.33 151.616ZM77.4726 167.559C76.2129 167.559 74.9816 167.206 73.9342 166.544C72.8868 165.883 72.0705 164.942 71.5884 163.842C71.1063 162.742 70.9802 161.532 71.2259 160.364C71.4717 159.196 72.0783 158.123 72.969 157.281C73.8598 156.439 74.9946 155.866 76.23 155.633C77.4655 155.401 78.7462 155.52 79.91 155.976C81.0738 156.432 82.0685 157.203 82.7684 158.193C83.4682 159.184 83.8417 160.348 83.8417 161.538C83.8417 163.135 83.1707 164.666 81.9763 165.796C80.7819 166.925 79.1618 167.559 77.4726 167.559Z" fill="#9570EE"/>
<path d="M77.4727 165.521C79.798 165.521 81.683 163.739 81.683 161.541C81.683 159.343 79.798 157.561 77.4727 157.561C75.1473 157.561 73.2623 159.343 73.2623 161.541C73.2623 163.739 75.1473 165.521 77.4727 165.521Z" fill="#6DB8FF"/>
<path d="M322.263 106.688H387.404C388.894 106.688 390.323 107.248 391.376 108.243C392.429 109.239 393.021 110.589 393.021 111.998V148.801C393.021 150.209 392.429 151.56 391.376 152.556C390.323 153.551 388.894 154.111 387.404 154.111H322.261C321.523 154.111 320.793 153.973 320.112 153.706C319.43 153.44 318.811 153.048 318.29 152.555C317.769 152.062 317.355 151.477 317.073 150.833C316.791 150.189 316.646 149.498 316.647 148.801V111.998C316.647 110.589 317.239 109.239 318.292 108.243C319.345 107.248 320.774 106.688 322.263 106.688V106.688Z" fill="#E3EAFF"/>
<path d="M354.905 130.031H354.757C354.416 130.032 354.08 129.949 353.782 129.792L324.345 114.332C324.105 114.216 323.892 114.055 323.719 113.86C323.546 113.664 323.417 113.438 323.338 113.194C323.26 112.95 323.234 112.694 323.262 112.441C323.291 112.187 323.373 111.942 323.504 111.719C323.635 111.497 323.812 111.301 324.025 111.145C324.237 110.988 324.481 110.873 324.742 110.808C325.002 110.742 325.274 110.727 325.541 110.763C325.808 110.798 326.064 110.885 326.295 111.016L354.831 126.004L383.37 111.016C383.601 110.885 383.857 110.798 384.124 110.763C384.391 110.727 384.663 110.742 384.923 110.808C385.184 110.873 385.427 110.988 385.64 111.145C385.853 111.301 386.03 111.497 386.161 111.719C386.292 111.942 386.374 112.187 386.402 112.441C386.431 112.694 386.405 112.95 386.327 113.194C386.248 113.438 386.119 113.664 385.946 113.86C385.773 114.055 385.56 114.216 385.32 114.332L355.88 129.792C355.583 129.95 355.247 130.032 354.905 130.031Z" fill="#FD4940"/>
<path d="M500.007 33.4962H415.287C412.535 33.4962 410.304 35.6048 410.304 38.2057V144.538C410.304 147.139 412.535 149.248 415.287 149.248H500.007C502.759 149.248 504.989 147.139 504.989 144.538V38.2057C504.989 35.6048 502.759 33.4962 500.007 33.4962Z" fill="#544DB8"/>
<path d="M431.458 49.0111H425.141C424.806 49.0111 424.534 48.4919 424.534 47.8584C424.534 47.2223 424.809 46.7057 425.141 46.7057H431.458C431.793 46.7057 432.065 47.2249 432.065 47.8584C432.065 48.4945 431.793 49.0111 431.458 49.0111Z" fill="#00CCFF"/>
<path d="M470.515 49.0111H434.43C434.094 49.0111 433.823 48.4919 433.823 47.8584C433.823 47.2223 434.097 46.7057 434.43 46.7057H470.515C470.851 46.7057 471.122 47.2249 471.122 47.8584C471.122 48.4945 470.851 49.0111 470.515 49.0111Z" fill="#00CCFF"/>
<path d="M445.94 53.7751H434.43C434.094 53.7751 433.823 53.2559 433.823 52.6224C433.823 51.9837 434.097 51.4697 434.43 51.4697H445.94C446.275 51.4697 446.547 51.9889 446.547 52.6224C446.547 53.2559 446.289 53.7751 445.94 53.7751Z" fill="#FF56A9"/>
<path d="M464.874 53.7751H448.283C447.948 53.7751 447.676 53.2559 447.676 52.6224C447.676 51.9837 447.95 51.4697 448.283 51.4697H464.874C465.209 51.4697 465.481 51.9889 465.481 52.6224C465.481 53.2559 465.209 53.7751 464.874 53.7751Z" fill="#E3EAFF"/>
<path d="M470.515 76.9826H434.43C434.094 76.9826 433.823 76.4634 433.823 75.8299C433.823 75.1938 434.097 74.6772 434.43 74.6772H470.515C470.851 74.6772 471.122 75.1964 471.122 75.8299C471.122 76.4659 470.851 76.9826 470.515 76.9826Z" fill="#E3EAFF"/>
<path d="M431.458 81.7492H425.141C424.806 81.7492 424.534 81.23 424.534 80.5965C424.534 79.9604 424.809 79.4438 425.141 79.4438H431.458C431.793 79.4438 432.065 79.963 432.065 80.5965C432.065 81.2326 431.793 81.7492 431.458 81.7492Z" fill="#00CCFF"/>
<path d="M445.94 81.7492H434.43C434.094 81.7492 433.823 81.23 433.823 80.5965C433.823 79.9604 434.097 79.4438 434.43 79.4438H445.94C446.275 79.4438 446.547 79.963 446.547 80.5965C446.547 81.2326 446.289 81.7492 445.94 81.7492Z" fill="#E3EAFF"/>
<path d="M464.874 81.7492H448.283C447.948 81.7492 447.676 81.23 447.676 80.5965C447.676 79.9604 447.95 79.4438 448.283 79.4438H464.874C465.209 79.4438 465.481 79.963 465.481 80.5965C465.481 81.2326 465.209 81.7492 464.874 81.7492Z" fill="#FF56A9"/>
<path d="M479.466 58.5444H434.424C434.089 58.5444 433.817 58.0251 433.817 57.3916C433.817 56.753 434.092 56.2363 434.424 56.2363H479.466C479.801 56.2363 480.073 56.7556 480.073 57.3916C480.07 58.0277 479.796 58.5444 479.466 58.5444Z" fill="#FF56A9"/>
<path d="M470.027 61.0029H459.54C459.186 61.0029 458.898 61.2749 458.898 61.6105V62.7009C458.898 63.0364 459.186 63.3084 459.54 63.3084H470.027C470.381 63.3084 470.669 63.0364 470.669 62.7009V61.6105C470.669 61.2749 470.381 61.0029 470.027 61.0029Z" fill="#00CCFF"/>
<path d="M449.39 63.311H434.43C434.094 63.311 433.823 62.7917 433.823 62.1557C433.823 61.5196 434.097 61.0029 434.43 61.0029H449.39C449.725 61.0029 449.997 61.5222 449.997 62.1557C449.997 62.7943 449.725 63.311 449.39 63.311Z" fill="#E3EAFF"/>
<path d="M457.352 63.311H451.419C451.084 63.311 450.812 62.7917 450.812 62.1557C450.812 61.5196 451.087 61.0029 451.419 61.0029H457.352C457.687 61.0029 457.959 61.5222 457.959 62.1557C457.959 62.7943 457.687 63.311 457.352 63.311Z" fill="#00CCFF"/>
<path d="M431.458 67.9166H425.141C424.806 67.9166 424.534 67.3974 424.534 66.7639C424.534 66.1279 424.809 65.6112 425.141 65.6112H431.458C431.793 65.6112 432.065 66.1305 432.065 66.7639C432.065 67.4 431.793 67.9166 431.458 67.9166Z" fill="#E3EAFF"/>
<path d="M479.466 67.9166H434.424C434.089 67.9166 433.817 67.3974 433.817 66.7639C433.817 66.1279 434.092 65.6112 434.424 65.6112H479.466C479.801 65.6112 480.073 66.1305 480.073 66.7639C480.07 67.4 479.796 67.9166 479.466 67.9166Z" fill="#E3EAFF"/>
<path d="M431.458 86.1628H425.141C424.806 86.1628 424.534 85.6435 424.534 85.01C424.534 84.374 424.809 83.8573 425.141 83.8573H431.458C431.793 83.8573 432.065 84.3766 432.065 85.01C432.065 85.6461 431.793 86.1628 431.458 86.1628Z" fill="#E3EAFF"/>
<path d="M474.426 83.8573H459.653C459.236 83.8573 458.898 84.177 458.898 84.5713V85.4488C458.898 85.8431 459.236 86.1628 459.653 86.1628H474.426C474.844 86.1628 475.182 85.8431 475.182 85.4488V84.5713C475.182 84.177 474.844 83.8573 474.426 83.8573Z" fill="#E3EAFF"/>
<path d="M449.39 86.1628H434.43C434.094 86.1628 433.823 85.6435 433.823 85.01C433.823 84.374 434.097 83.8573 434.43 83.8573H449.39C449.725 83.8573 449.997 84.3766 449.997 85.01C449.997 85.6461 449.725 86.1628 449.39 86.1628Z" fill="#E3EAFF"/>
<path d="M457.352 86.1628H451.419C451.084 86.1628 450.812 85.6435 450.812 85.01C450.812 84.374 451.087 83.8573 451.419 83.8573H457.352C457.687 83.8573 457.959 84.3766 457.959 85.01C457.959 85.6461 457.687 86.1628 457.352 86.1628Z" fill="#E3EAFF"/>
<path d="M431.458 90.771H425.141C424.806 90.771 424.534 90.2518 424.534 89.6183C424.534 88.9796 424.809 88.4656 425.141 88.4656H431.458C431.793 88.4656 432.065 88.9848 432.065 89.6183C432.065 90.2544 431.793 90.771 431.458 90.771Z" fill="#FFC359"/>
<path d="M442.227 90.771H434.43C434.094 90.771 433.823 90.2518 433.823 89.6183C433.823 88.9796 434.097 88.4656 434.43 88.4656H442.227C442.562 88.4656 442.834 88.9848 442.834 89.6183C442.834 90.2544 442.562 90.771 442.227 90.771Z" fill="#00CCFF"/>
<path d="M425.141 72.6833C424.806 72.6833 424.534 72.164 424.534 71.5306C424.534 70.8945 424.809 70.3779 425.141 70.3779H431.458C431.793 70.3779 432.065 70.8971 432.065 71.5306C432.065 72.1666 431.79 72.6833 431.458 72.6833" fill="#00CCFF"/>
<path d="M476.497 70.3779H459.7C459.257 70.3779 458.898 70.7173 458.898 71.1359V71.9252C458.898 72.3439 459.257 72.6833 459.7 72.6833H476.497C476.94 72.6833 477.299 72.3439 477.299 71.9252V71.1359C477.299 70.7173 476.94 70.3779 476.497 70.3779Z" fill="#E3EAFF"/>
<path d="M449.39 72.6833H434.43C434.094 72.6833 433.823 72.164 433.823 71.5306C433.823 70.8945 434.097 70.3779 434.43 70.3779H449.39C449.725 70.3779 449.997 70.8971 449.997 71.5306C449.997 72.1666 449.725 72.6833 449.39 72.6833Z" fill="#FFC359"/>
<path d="M457.352 72.6833H451.419C451.084 72.6833 450.812 72.164 450.812 71.5306C450.812 70.8945 451.087 70.3779 451.419 70.3779H457.352C457.687 70.3779 457.959 70.8971 457.959 71.5306C457.959 72.1666 457.687 72.6833 457.352 72.6833Z" fill="#FFC359"/>
<path d="M470.515 95.6701H434.43C434.094 95.6701 433.823 95.1508 433.823 94.5173C433.823 93.8813 434.097 93.3646 434.43 93.3646H470.515C470.851 93.3646 471.122 93.8839 471.122 94.5173C471.122 95.1534 470.851 95.6701 470.515 95.6701Z" fill="#E3EAFF"/>
<path d="M445.94 100.437H434.43C434.094 100.437 433.823 99.9174 433.823 99.284C433.823 98.6479 434.097 98.1313 434.43 98.1313H445.94C446.275 98.1313 446.547 98.6505 446.547 99.284C446.547 99.92 446.289 100.437 445.94 100.437Z" fill="#E3EAFF"/>
<path d="M464.874 100.437H448.283C447.948 100.437 447.676 99.9174 447.676 99.284C447.676 98.6479 447.95 98.1313 448.283 98.1313H464.874C465.209 98.1313 465.481 98.6505 465.481 99.284C465.481 99.92 465.209 100.437 464.874 100.437Z" fill="#E3EAFF"/>
<path d="M470.515 123.642H434.43C434.094 123.642 433.823 123.122 433.823 122.489C433.823 121.853 434.097 121.336 434.43 121.336H470.515C470.851 121.336 471.122 121.855 471.122 122.489C471.122 123.128 470.851 123.642 470.515 123.642Z" fill="#E3EAFF"/>
<path d="M431.458 128.408H425.141C424.806 128.408 424.534 127.889 424.534 127.255C424.534 126.619 424.809 126.103 425.141 126.103H431.458C431.793 126.103 432.065 126.622 432.065 127.255C432.065 127.892 431.793 128.408 431.458 128.408Z" fill="#FF56A9"/>
<path d="M445.94 128.408H434.43C434.094 128.408 433.823 127.889 433.823 127.255C433.823 126.619 434.097 126.103 434.43 126.103H445.94C446.275 126.103 446.547 126.622 446.547 127.255C446.547 127.892 446.289 128.408 445.94 128.408Z" fill="#00CCFF"/>
<path d="M464.874 128.408H448.283C447.948 128.408 447.676 127.889 447.676 127.255C447.676 126.619 447.95 126.103 448.283 126.103H464.874C465.209 126.103 465.481 126.622 465.481 127.255C465.481 127.892 465.209 128.408 464.874 128.408Z" fill="#E3EAFF"/>
<path d="M431.458 105.203H425.141C424.806 105.203 424.534 104.684 424.534 104.051C424.534 103.412 424.809 102.898 425.141 102.898H431.458C431.793 102.898 432.065 103.417 432.065 104.051C432.065 104.687 431.793 105.203 431.458 105.203Z" fill="#FF56A9"/>
<path d="M466.646 102.898H434.556C434.151 102.898 433.823 103.208 433.823 103.591V104.51C433.823 104.893 434.151 105.203 434.556 105.203H466.646C467.051 105.203 467.379 104.893 467.379 104.51V103.591C467.379 103.208 467.051 102.898 466.646 102.898Z" fill="#FF56A9"/>
<path d="M431.458 109.97H425.141C424.806 109.97 424.534 109.451 424.534 108.815C424.534 108.179 424.809 107.662 425.141 107.662H431.458C431.793 107.662 432.065 108.181 432.065 108.815C432.065 109.453 431.793 109.97 431.458 109.97Z" fill="#E3EAFF"/>
<path d="M449.39 109.97H434.43C434.094 109.97 433.823 109.451 433.823 108.815C433.823 108.179 434.097 107.662 434.43 107.662H449.39C449.725 107.662 449.997 108.181 449.997 108.815C449.997 109.453 449.725 109.97 449.39 109.97Z" fill="#E3EAFF"/>
<path d="M457.352 109.97H451.419C451.084 109.97 450.812 109.451 450.812 108.815C450.812 108.179 451.087 107.662 451.419 107.662H457.352C457.687 107.662 457.959 108.181 457.959 108.815C457.959 109.453 457.687 109.97 457.352 109.97Z" fill="#E3EAFF"/>
<path d="M431.458 114.576H425.141C424.806 114.576 424.534 114.056 424.534 113.423C424.534 112.787 424.809 112.27 425.141 112.27H431.458C431.793 112.27 432.065 112.789 432.065 113.423C432.065 114.062 431.793 114.576 431.458 114.576Z" fill="#E3EAFF"/>
<path d="M434.647 112.27H475.253C475.472 112.27 475.681 112.352 475.836 112.498C475.99 112.644 476.077 112.842 476.077 113.049V113.799C476.077 114.006 475.99 114.204 475.836 114.35C475.681 114.496 475.472 114.578 475.253 114.578H434.647C434.428 114.578 434.218 114.496 434.064 114.35C433.909 114.204 433.823 114.006 433.823 113.799V113.049C433.823 112.842 433.909 112.644 434.064 112.498C434.218 112.352 434.428 112.27 434.647 112.27V112.27Z" fill="#E3EAFF"/>
<path d="M431.458 132.822H425.141C424.806 132.822 424.534 132.302 424.534 131.669C424.534 131.033 424.809 130.516 425.141 130.516H431.458C431.793 130.516 432.065 131.036 432.065 131.669C432.065 132.305 431.793 132.822 431.458 132.822Z" fill="#E3EAFF"/>
<path d="M479.42 132.822H459.505C459.17 132.822 458.898 132.302 458.898 131.669C458.898 131.033 459.172 130.516 459.505 130.516H479.42C479.755 130.516 480.027 131.036 480.027 131.669C480.027 132.305 479.755 132.822 479.42 132.822Z" fill="#E3EAFF"/>
<path d="M449.39 132.822H434.43C434.094 132.822 433.823 132.302 433.823 131.669C433.823 131.033 434.097 130.516 434.43 130.516H449.39C449.725 130.516 449.997 131.036 449.997 131.669C449.997 132.305 449.725 132.822 449.39 132.822Z" fill="#E3EAFF"/>
<path d="M457.352 132.822H451.419C451.084 132.822 450.812 132.302 450.812 131.669C450.812 131.033 451.087 130.516 451.419 130.516H457.352C457.687 130.516 457.959 131.036 457.959 131.669C457.959 132.305 457.687 132.822 457.352 132.822Z" fill="#E3EAFF"/>
<path d="M461.07 135.125H434.49C434.121 135.125 433.823 135.407 433.823 135.755V136.799C433.823 137.147 434.121 137.43 434.49 137.43H461.07C461.439 137.43 461.738 137.147 461.738 136.799V135.755C461.738 135.407 461.439 135.125 461.07 135.125Z" fill="#FFC359"/>
<path d="M477.552 117.037H459.724C459.268 117.037 458.898 117.387 458.898 117.818V118.561C458.898 118.992 459.268 119.342 459.724 119.342H477.552C478.008 119.342 478.379 118.992 478.379 118.561V117.818C478.379 117.387 478.008 117.037 477.552 117.037Z" fill="#FF56A9"/>
<path d="M449.39 119.342H434.43C434.094 119.342 433.823 118.823 433.823 118.19C433.823 117.553 434.097 117.037 434.43 117.037H449.39C449.725 117.037 449.997 117.556 449.997 118.19C449.997 118.826 449.725 119.342 449.39 119.342Z" fill="#FFC359"/>
<path d="M457.352 119.342H451.419C451.084 119.342 450.812 118.823 450.812 118.19C450.812 117.553 451.087 117.037 451.419 117.037H457.352C457.687 117.037 457.959 117.556 457.959 118.19C457.959 118.826 457.687 119.342 457.352 119.342Z" fill="#FFC359"/>
<path d="M497.357 54.7305C508.366 54.7305 517.291 46.2941 517.291 35.8873C517.291 25.4805 508.366 17.0441 497.357 17.0441C486.348 17.0441 477.423 25.4805 477.423 35.8873C477.423 46.2941 486.348 54.7305 497.357 54.7305Z" fill="#FF4DD1"/>
<path d="M495.912 34.1193L487.994 36.8609L495.912 39.5791V42.3908L484.594 38.3225V35.3992L495.912 31.3336V34.1193Z" fill="#F9FBFC"/>
<path d="M498.497 31.3336L509.815 35.3992V38.3225L498.497 42.3908V39.5791L506.415 36.8609L498.497 34.1193V31.3336Z" fill="#F9FBFC"/>
<path d="M377.633 370.551C387.521 364.218 390.106 351.507 383.407 342.16C376.707 332.813 363.26 330.369 353.372 336.702C343.484 343.035 340.899 355.746 347.599 365.093C354.298 374.44 367.745 376.884 377.633 370.551Z" fill="#FFC240"/>
<path d="M376.918 352.442C376.933 353.631 376.715 354.812 376.276 355.926C375.912 356.889 375.285 357.744 374.457 358.403C373.689 358.998 372.723 359.316 371.73 359.301C371.085 359.313 370.45 359.151 369.898 358.834C369.389 358.545 368.989 358.113 368.753 357.598H368.528C368.068 358.143 367.483 358.579 366.816 358.875C366.149 359.17 365.419 359.316 364.683 359.301C363.965 359.338 363.246 359.232 362.575 358.989C361.903 358.747 361.292 358.374 360.783 357.894C360.288 357.372 359.908 356.763 359.663 356.102C359.418 355.441 359.313 354.741 359.355 354.041C359.318 353.21 359.465 352.381 359.789 351.606C360.112 350.832 360.603 350.131 361.23 349.547C361.886 348.971 362.656 348.523 363.496 348.23C364.337 347.937 365.23 347.805 366.125 347.842C367.012 347.849 367.897 347.922 368.772 348.06C369.581 348.168 370.379 348.342 371.156 348.579L370.835 355.041C370.835 356.266 371.189 356.879 371.898 356.879C372.493 356.879 372.968 356.467 373.323 355.643C373.715 354.607 373.896 353.511 373.856 352.411C373.883 351.103 373.561 349.809 372.919 348.649C372.323 347.589 371.405 346.722 370.283 346.159C369.085 345.571 367.751 345.276 366.402 345.3C364.693 345.261 363.003 345.639 361.494 346.398C360.113 347.121 358.999 348.225 358.3 349.563C357.538 351.05 357.161 352.688 357.201 354.34C357.129 355.356 357.274 356.376 357.629 357.338C357.983 358.299 358.539 359.184 359.264 359.937C360.071 360.625 361.016 361.152 362.044 361.487C363.071 361.822 364.159 361.958 365.243 361.887C366.336 361.878 367.427 361.775 368.5 361.578C369.691 361.369 370.86 361.066 371.997 360.672V363.211C369.891 364.032 367.631 364.441 365.353 364.413C362.333 364.587 359.361 363.639 357.07 361.77C356.053 360.813 355.263 359.663 354.751 358.396C354.239 357.129 354.016 355.775 354.098 354.421C354.07 352.355 354.591 350.316 355.614 348.491C356.603 346.738 358.102 345.289 359.934 344.316C361.906 343.282 364.133 342.76 366.388 342.803C368.294 342.77 370.18 343.178 371.881 343.992C373.45 344.744 374.749 345.918 375.614 347.367C376.512 348.921 376.961 350.672 376.918 352.442ZM362.598 354.096C362.598 355.955 363.4 356.884 365.004 356.884C365.373 356.905 365.742 356.839 366.077 356.693C366.413 356.546 366.705 356.323 366.927 356.043C367.448 355.219 367.724 354.275 367.723 353.315L367.904 350.394C367.375 350.292 366.835 350.243 366.295 350.248C365.789 350.222 365.283 350.302 364.813 350.481C364.343 350.661 363.921 350.936 363.576 351.287C362.89 352.075 362.541 353.077 362.598 354.096Z" fill="white"/>
<path d="M256.84 1.16182e-06H121.186C118.546 -0.0292747 115.927 0.436883 113.479 1.37143C111.032 2.30598 108.805 3.69033 106.927 5.44432C105.05 7.1983 103.559 9.28705 102.542 11.5895C101.525 13.8919 101.001 16.3623 101.001 18.8575C101.001 21.3527 101.525 23.8231 102.542 26.1256C103.559 28.428 105.05 30.5167 106.927 32.2707C108.805 34.0247 111.032 35.4091 113.479 36.3436C115.927 37.2782 118.546 37.7443 121.186 37.715H131.161L140.801 46.8303L150.444 37.715H256.84C262.09 37.6568 267.104 35.6444 270.795 32.1143C274.486 28.5841 276.556 23.8209 276.556 18.8575C276.556 13.8942 274.486 9.13094 270.795 5.6008C267.104 2.07065 262.09 0.0582354 256.84 1.16182e-06Z" fill="#9570EE"/>
<path d="M218.024 24.869H128.763C128.171 24.869 127.603 24.6467 127.184 24.2508C126.765 23.855 126.53 23.3181 126.53 22.7583C126.531 22.199 126.767 21.6628 127.185 21.2675C127.604 20.8722 128.171 20.6502 128.763 20.6502H218.024C218.615 20.6509 219.182 20.8732 219.6 21.2684C220.018 21.6636 220.253 22.1994 220.254 22.7583C220.254 23.3177 220.019 23.8542 219.601 24.2499C219.183 24.6457 218.615 24.8683 218.024 24.869Z" fill="white"/>
<path d="M190.128 13.2744H128.76C128.168 13.2744 127.6 13.052 127.181 12.6562C126.763 12.2603 126.527 11.7235 126.527 11.1637C126.528 10.6043 126.764 10.0681 127.182 9.67285C127.601 9.27758 128.169 9.05557 128.76 9.05557H190.128C190.719 9.05557 191.286 9.27766 191.705 9.67301C192.123 10.0684 192.358 10.6046 192.358 11.1637C192.358 11.4407 192.301 11.7152 192.189 11.9712C192.077 12.2273 191.913 12.46 191.706 12.656C191.498 12.852 191.252 13.0076 190.982 13.1137C190.711 13.2198 190.421 13.2744 190.128 13.2744Z" fill="white"/>
<path d="M442.251 238.952C442.251 238.952 440.59 243.607 439.672 246.424C439.672 246.424 447.808 246.26 450.658 242.688L447.624 235.813L442.251 238.952Z" fill="#F7D3A9"/>
<path d="M441.029 367.334L441.724 370.263L446.215 370.501L445.267 366.913L441.029 367.334Z" fill="#F79A74"/>
<path d="M441.724 370.252C441.724 370.252 434.199 373.96 434.262 374.198C434.325 374.437 446.973 373.183 446.973 373.183L446.215 370.494L441.724 370.252Z" fill="#544DB8"/>
<path d="M478.972 361.425L480.735 363.923L485.017 362.624L482.765 359.6L478.972 361.425Z" fill="#F79A74"/>
<path d="M480.741 363.93C480.741 363.93 475.132 369.948 475.281 370.161C475.429 370.374 486.755 364.888 486.755 364.888L485.022 362.635L480.741 363.93Z" fill="#544DB8"/>
<path d="M432.68 289.915C432.68 289.915 419.771 329.731 440.268 368.11H446.341C446.341 368.11 434.199 324.71 449.376 289.557L432.68 289.915Z" fill="#FFC240"/>
<path d="M443.883 291.328C443.883 291.328 445.88 332.927 478.821 362.57L484.542 360.641C484.542 360.641 457.678 323.617 459.48 285.686L443.883 291.328Z" fill="#FFC240"/>
<path d="M437.972 197.589L437.989 195.136C437.989 195.028 437.975 194.921 437.945 194.816L437.451 193.061L435.97 193.417L434.46 192.101C434.313 191.971 434.135 191.876 433.942 191.823C433.748 191.77 433.544 191.761 433.347 191.797C433.149 191.833 432.963 191.912 432.804 192.028C432.644 192.145 432.516 192.295 432.43 192.467C431.914 193.438 431.523 194.464 431.266 195.523C431.235 195.703 431.249 195.887 431.306 196.061C431.362 196.235 431.461 196.394 431.592 196.527L433.899 198.916C434.062 199.084 434.271 199.205 434.504 199.266C434.736 199.327 434.981 199.326 435.212 199.261L437.052 198.742C437.316 198.669 437.549 198.517 437.714 198.309C437.88 198.102 437.971 197.849 437.972 197.589Z" fill="#F79A74"/>
<path d="M460.227 251.434C460.227 251.434 443.399 234.388 442.293 228.006C441.186 221.625 438.722 197.89 438.722 197.89L433.534 198.838C433.534 198.838 431.752 232.789 433.328 236.696C434.905 240.603 445.02 260.529 451.611 262.37C458.203 264.21 462.831 258.068 460.227 251.434Z" fill="#FF4F72"/>
<path d="M436.855 223.307C436.855 223.307 433.056 235.25 435.462 238.253C437.868 241.257 446.723 238.536 450.153 233.72C453.583 228.905 454.273 218.073 448.437 217.17C442.6 216.266 438.228 218.499 436.855 223.307Z" fill="#F79A74"/>
<path d="M459.623 293.145C459.623 293.145 463.037 258.709 463.037 249.383C463.037 248.958 463.037 248.558 463.02 248.155C462.14 246.103 460.505 244.419 458.417 243.415C456.328 242.41 453.926 242.152 451.653 242.688C447.439 243.645 443.315 244.925 439.321 246.515L439.294 246.481C436.866 248.036 434.755 249.991 433.059 252.252C427.586 264.832 427.182 278.872 431.922 291.714L459.623 293.145Z" fill="#FF4F72"/>
<path d="M411.395 199.352L410.953 196.935C410.934 196.828 410.9 196.724 410.851 196.626L410.027 194.98L408.637 195.577L406.904 194.538C406.735 194.437 406.543 194.375 406.344 194.356C406.145 194.337 405.944 194.363 405.757 194.431C405.57 194.498 405.403 194.607 405.268 194.747C405.134 194.887 405.036 195.055 404.982 195.237C404.655 196.278 404.461 197.353 404.405 198.438C404.409 198.62 404.456 198.8 404.544 198.962C404.632 199.125 404.759 199.266 404.913 199.375L407.627 201.34C407.818 201.479 408.046 201.565 408.286 201.587C408.526 201.609 408.768 201.567 408.983 201.465L410.7 200.653C410.949 200.536 411.152 200.346 411.277 200.112C411.402 199.877 411.444 199.611 411.395 199.352Z" fill="#F79A74"/>
<path d="M443.306 248.664C443.306 248.664 423.573 234.676 421.296 228.577C419.019 222.479 412.188 199.521 412.188 199.521L407.245 201.315C407.245 201.315 411.799 235.034 414.075 238.62C416.352 242.205 430.005 260.142 436.844 260.859C443.682 261.575 447.099 254.763 443.306 248.664Z" fill="#FF4F72"/>
<path d="M450.895 217.097C450.895 217.097 440.777 213.034 435.967 221.402C433.438 226.664 441.535 221.643 443.053 223.315C444.572 224.987 441.029 228.339 442.04 229.546C443.051 230.753 444.822 227.394 445.836 229.307C446.849 231.22 444.317 231.459 442.54 233.611C440.763 235.764 444.059 238.871 441.529 240.785C439 242.698 431.916 244.134 436.217 254.417C440.518 264.701 429.132 267.328 433.941 281.439C438.75 295.549 471.381 303.439 477.45 286.699C483.52 269.958 463.284 265.895 464.542 258.481C465.8 251.066 470.359 249.155 464.289 241.743C458.219 234.331 454.421 230.024 456.193 225.241C456.491 224.377 456.588 223.461 456.475 222.557C456.362 221.654 456.042 220.785 455.538 220.01C455.034 219.235 454.357 218.573 453.556 218.07C452.754 217.567 451.846 217.235 450.895 217.097Z" fill="#544DB8"/>
<path d="M478.491 159.28C474.189 159.28 469.984 160.486 466.406 162.745C462.829 165.004 460.041 168.216 458.395 171.973C456.749 175.73 456.318 179.864 457.157 183.853C457.996 187.842 460.068 191.505 463.11 194.381C466.152 197.257 470.028 199.215 474.248 200.008C478.467 200.802 482.841 200.395 486.815 198.838C490.79 197.282 494.187 194.646 496.577 191.265C498.968 187.884 500.243 183.908 500.243 179.842C500.243 174.388 497.952 169.158 493.872 165.302C489.793 161.446 484.26 159.28 478.491 159.28ZM467.505 178.232C467.506 177.735 467.662 177.249 467.955 176.836C468.247 176.423 468.663 176.102 469.148 175.912C469.634 175.722 470.169 175.673 470.684 175.77C471.2 175.867 471.673 176.107 472.045 176.458C472.416 176.81 472.669 177.258 472.772 177.745C472.874 178.233 472.821 178.738 472.62 179.197C472.419 179.656 472.078 180.048 471.641 180.324C471.204 180.6 470.69 180.748 470.164 180.748C469.814 180.749 469.468 180.685 469.145 180.56C468.821 180.435 468.527 180.251 468.279 180.018C468.031 179.785 467.834 179.509 467.698 179.204C467.563 178.899 467.493 178.573 467.492 178.242L467.505 178.232ZM478.491 191.055C476.819 191.054 475.204 190.481 473.945 189.442C472.685 188.403 471.866 186.968 471.639 185.403H485.341C485.116 186.97 484.299 188.407 483.039 189.448C481.78 190.489 480.164 191.063 478.491 191.065V191.055ZM486.83 180.748C486.304 180.748 485.79 180.6 485.353 180.324C484.916 180.048 484.575 179.656 484.374 179.197C484.172 178.738 484.119 178.233 484.222 177.745C484.324 177.258 484.577 176.81 484.949 176.458C485.32 176.107 485.794 175.867 486.309 175.77C486.825 175.673 487.359 175.722 487.845 175.912C488.331 176.102 488.746 176.423 489.039 176.836C489.331 177.249 489.488 177.735 489.488 178.232C489.49 178.563 489.422 178.891 489.29 179.198C489.157 179.504 488.961 179.783 488.714 180.017C488.467 180.252 488.174 180.438 487.85 180.565C487.527 180.693 487.18 180.758 486.83 180.758V180.748Z" fill="#FEC800"/>
<path d="M155.36 326.096L154.086 323.689L188.57 307.39L232.072 308.063L279.311 291.245H315.389L353.911 279.107L354.224 279.139L385.114 282.459L402.529 273.892L403.842 276.278L385.66 285.216L385.226 285.172L354.216 281.839L315.62 293.924H279.578L232.58 310.752H232.305L189.227 310.085L155.36 326.096Z" fill="#F9FBFC"/>
<path d="M281.92 261.515C281.92 261.515 316.106 313.837 311.821 350.233L335.078 350.69L325.111 345.238L327.96 344.783C327.96 344.783 319.415 288.368 311.346 268.349C302.895 247.382 300.432 255.155 300.432 255.155L281.92 261.515Z" fill="#544DB8"/>
<path d="M269.58 258.268C269.58 258.268 271.478 294.614 268.633 308.517C265.788 322.42 257.241 349.797 257.241 349.797L279.072 350.246L273.338 346.419L269.699 344.412C269.699 344.412 285.244 304.932 286.666 286.089C287.301 276.16 288.57 266.276 290.465 256.492L269.58 258.268Z" fill="#544DB8"/>
<path d="M314.255 150.704L317.825 148.35L319.426 142.796L317.647 142.459L316.578 144.479L317.647 134.888L315.867 135.226L314.087 144.479L311.95 148.853L313.909 150.032" fill="#F7D3A9"/>
<path d="M335.315 160.687L335.79 156.65L341.008 151.717L342.195 153.275L340.297 155.294L350.264 153.051V155.071L341.008 158.446L339.11 161.588L335.315 160.687Z" fill="#F7D3A9"/>
<path d="M311.783 147.309C311.783 147.309 271.253 193.806 266.532 203.106C266.532 203.106 264.563 206.453 264.563 216.123C264.563 225.794 268.106 261.505 268.106 261.505L309.424 263.738C309.424 263.738 296.043 220.215 295.65 219.101C292.284 214.798 287.621 211.556 282.272 209.802L316.899 150.658L311.783 147.309Z" fill="#6DB8FF"/>
<path d="M286.12 205.31C286.12 205.31 287.842 210.137 288.792 213.057C288.792 213.057 280.358 212.889 277.389 209.184L280.536 202.055L286.12 205.31Z" fill="#F7D3A9"/>
<path d="M292.533 190.219C292.533 190.219 295.027 203.952 292.533 207.073C290.039 210.194 281.486 204.887 277.924 199.895C274.362 194.902 273.648 183.666 279.704 182.728C282.445 182.244 285.279 182.743 287.651 184.128C290.023 185.513 291.764 187.685 292.533 190.219Z" fill="#F7D3A9"/>
<path d="M288.699 215.638C288.699 215.638 321.192 196.317 323.815 192.353C326.438 188.388 333.771 158.911 333.771 158.911L340.061 160.396C340.061 160.396 336.391 193.344 335.345 196.813C334.298 200.281 302.324 232.482 294.988 232.482C287.652 232.482 285.029 223.567 288.699 215.638Z" fill="#6DB8FF"/>
<path d="M290.226 187.158C290.226 187.158 291.874 181.773 288.328 179.081C286.8 178.049 285.027 177.387 283.166 177.153C281.304 176.918 279.41 177.119 277.65 177.736C277.65 179.294 281.445 180.202 280.498 181.111C279.55 182.02 274.565 181.111 273.379 185.821C272.192 190.53 273.851 191.431 273.851 191.431C273.083 192.468 272.712 193.722 272.798 194.986C272.884 196.25 273.423 197.448 274.326 198.384C277.413 202.421 284.384 205.752 286.12 205.321C287.855 204.89 286.905 198.609 286.905 198.609C286.905 198.609 282.871 198.16 282.632 195.691C282.393 193.222 284.532 192.999 285.48 193.897C286.427 194.796 286.666 196.813 287.38 196.364C288.094 195.915 287.141 191.205 287.141 191.205C288.534 190.141 289.6 188.744 290.226 187.158Z" fill="#544DB8"/>
<path d="M309.352 324.595L284.95 330.925C281.719 331.772 278.975 333.793 277.316 336.547C275.656 339.301 275.218 342.563 276.095 345.622L280.712 361.529C281.608 364.583 283.746 367.178 286.659 368.747C289.572 370.316 293.024 370.731 296.26 369.902L303.579 368.004L310.783 374.733L313.346 365.47L320.662 363.572C323.893 362.726 326.638 360.704 328.297 357.951C329.957 355.197 330.395 351.934 329.517 348.875L324.895 332.966C323.997 329.914 321.859 327.321 318.948 325.753C316.036 324.185 312.587 323.769 309.352 324.595Z" fill="#9570EE"/>
<path d="M293.206 350.666C293.352 351.171 293.337 351.705 293.162 352.202C292.987 352.698 292.661 353.134 292.224 353.455C291.787 353.776 291.259 353.967 290.707 354.005C290.155 354.042 289.604 353.924 289.123 353.665C288.641 353.407 288.252 353.019 288.005 352.551C287.757 352.084 287.661 351.557 287.73 351.038C287.798 350.519 288.028 350.03 288.39 349.635C288.753 349.239 289.231 348.954 289.764 348.815C290.119 348.723 290.489 348.698 290.854 348.741C291.219 348.784 291.571 348.895 291.891 349.067C292.21 349.239 292.491 349.468 292.717 349.743C292.942 350.017 293.108 350.331 293.206 350.666Z" fill="white"/>
<path d="M305.504 347.478C305.651 347.983 305.636 348.517 305.461 349.014C305.286 349.51 304.96 349.947 304.523 350.268C304.086 350.589 303.557 350.78 303.005 350.817C302.453 350.855 301.902 350.737 301.421 350.478C300.94 350.219 300.551 349.831 300.303 349.363C300.055 348.895 299.96 348.368 300.029 347.849C300.098 347.329 300.328 346.841 300.691 346.446C301.053 346.05 301.532 345.765 302.066 345.627C302.781 345.442 303.546 345.533 304.191 345.88C304.835 346.227 305.308 346.802 305.504 347.478Z" fill="white"/>
<path d="M317.803 344.29C317.949 344.795 317.933 345.329 317.758 345.825C317.583 346.322 317.256 346.758 316.819 347.078C316.382 347.399 315.853 347.59 315.301 347.627C314.749 347.664 314.198 347.545 313.717 347.286C313.236 347.027 312.848 346.639 312.6 346.171C312.353 345.703 312.258 345.176 312.327 344.657C312.396 344.138 312.627 343.65 312.989 343.255C313.352 342.859 313.831 342.575 314.364 342.436C314.719 342.345 315.089 342.32 315.454 342.363C315.819 342.407 316.171 342.518 316.49 342.69C316.809 342.862 317.09 343.092 317.315 343.367C317.54 343.641 317.706 343.955 317.803 344.29Z" fill="white"/>
<path d="M188.661 312.331C191.152 312.331 193.171 310.422 193.171 308.068C193.171 305.714 191.152 303.805 188.661 303.805C186.17 303.805 184.151 305.714 184.151 308.068C184.151 310.422 186.17 312.331 188.661 312.331Z" fill="#FFC240"/>
<path d="M354.301 284.964C356.792 284.964 358.811 283.056 358.811 280.701C358.811 278.347 356.792 276.438 354.301 276.438C351.81 276.438 349.791 278.347 349.791 280.701C349.791 283.056 351.81 284.964 354.301 284.964Z" fill="#FF4F72"/>
</g>
<defs>
<clipPath id="clip0">
<rect width="535" height="382" fill="white"/>
</clipPath>
</defs>
</svg>
